<svg width="31" height="33" viewBox="0 0 31 33" fill="none" xmlns="http://www.w3.org/2000/svg">
<path d="M1.95 28.1C4.25 27.3667 6.48333 26.45 8.65 25.35C10.8167 24.2167 12.75 22.8667 14.45 21.3C16.15 19.7 17.5 17.85 18.5 15.75C19.5333 13.65 20.05 11.2333 20.05 8.5C20.05 7.16667 19.9167 6.13333 19.65 5.4C19.3833 4.66667 18.9167 4.3 18.25 4.3C17.65 4.3 17.0833 4.58333 16.55 5.15C16.05 5.71667 15.5833 6.43333 15.15 7.3C14.75 8.16667 14.3667 9.13333 14 10.2C13.6667 11.2667 13.3833 12.3 13.15 13.3H4.1L5.75 5.8C7.61667 4.2 9.58333 2.96667 11.65 2.1C13.7167 1.2 16.05 0.749998 18.65 0.749998C20.25 0.749998 21.75 0.933332 23.15 1.3C24.5833 1.66667 25.8167 2.25 26.85 3.05C27.9167 3.81666 28.75 4.8 29.35 6C29.9833 7.16667 30.3 8.56667 30.3 10.2C30.3 11.4333 30.0833 12.65 29.65 13.85C29.25 15.05 28.5167 16.3 27.45 17.6C26.4167 18.8667 25 20.2 23.2 21.6C21.4333 22.9667 19.1833 24.45 16.45 26.05H27.6L26.6 33H0.85L1.95 28.1Z" fill="#257BB9"/>
</svg>
