<svg width="30" height="34" viewBox="0 0 30 34" fill="none" xmlns="http://www.w3.org/2000/svg">
<path d="M11.7 33.4C9.33333 33.4 7.25 33.1 5.45 32.5C3.65 31.8667 1.91667 30.7667 0.25 29.2L1.85 21.7H10.3C10.3 21.6667 10.2667 21.7833 10.2 22.05C10.1667 22.3167 10.1167 22.6667 10.05 23.1C10.0167 23.5333 9.96667 24.0167 9.9 24.55C9.86667 25.0833 9.85 25.6 9.85 26.1C9.85 27.4667 10.0167 28.45 10.35 29.05C10.7167 29.6167 11.2167 29.9 11.85 29.9C12.55 29.9 13.2 29.6667 13.8 29.2C14.4333 28.7333 14.9667 28.15 15.4 27.45C15.8333 26.75 16.1667 25.9833 16.4 25.15C16.6667 24.2833 16.8 23.45 16.8 22.65C16.8 21.1167 16.4 19.9833 15.6 19.25C14.8333 18.4833 13.8833 18.1 12.75 18.1C12.85 17.4667 12.9667 16.9 13.1 16.4C13.2 15.9667 13.2833 15.5833 13.35 15.25C13.45 14.8833 13.5 14.6833 13.5 14.65C14.6 14.65 15.5167 14.4833 16.25 14.15C17.0167 13.7833 17.6333 13.3 18.1 12.7C18.6 12.0667 18.95 11.3333 19.15 10.5C19.35 9.63333 19.45 8.71667 19.45 7.75C19.45 7.35 19.4167 6.95 19.35 6.55C19.3167 6.11666 19.2333 5.73333 19.1 5.4C18.9667 5.03333 18.7667 4.75 18.5 4.55C18.2667 4.31667 17.9333 4.2 17.5 4.2C16.6 4.2 15.7167 4.73333 14.85 5.8C14.0167 6.86667 13.2667 8.68333 12.6 11.25H4L5.5 4.2C6.5 3.56667 7.65 3 8.95 2.5C10.05 2.06667 11.3667 1.66667 12.9 1.3C14.4667 0.933332 16.25 0.749998 18.25 0.749998C19.55 0.749998 20.85 0.866665 22.15 1.1C23.45 1.3 24.6167 1.68333 25.65 2.25C26.7167 2.81666 27.5667 3.58333 28.2 4.55C28.8667 5.51667 29.2 6.75 29.2 8.25C29.2 9.38333 29 10.3833 28.6 11.25C28.2333 12.0833 27.6833 12.8333 26.95 13.5C26.2167 14.1667 25.3333 14.7667 24.3 15.3C23.3 15.8333 22.15 16.3333 20.85 16.8C21.85 16.9 22.7833 17.1 23.65 17.4C24.5167 17.7 25.2667 18.1167 25.9 18.65C26.5667 19.1833 27.0833 19.8333 27.45 20.6C27.85 21.3667 28.05 22.2833 28.05 23.35C28.05 24.7833 27.6667 26.1167 26.9 27.35C26.1333 28.5833 25.0333 29.65 23.6 30.55C22.2 31.45 20.4833 32.15 18.45 32.65C16.45 33.15 14.2 33.4 11.7 33.4Z" fill="#257BB9"/>
</svg>
