<svg width="216" height="192" viewBox="0 0 216 192" fill="none" xmlns="http://www.w3.org/2000/svg">
<path d="M108.235 5.89727L109.661 7.06929L111.201 6.05267L114.696 3.74489L117.636 6.72906L118.931 8.04364L120.569 7.19356L124.287 5.26382L126.898 8.53891L128.049 9.98165L129.766 9.30742L133.665 7.77688L135.92 11.307L136.914 12.8621L138.692 12.3711L142.73 11.2565L144.604 15.003L145.429 16.6534L147.249 16.351L151.382 15.6646L152.853 19.5865L153.502 21.3141L155.344 21.2036L159.525 20.9529L160.579 25.0071L161.043 26.793L162.886 26.8757L167.071 27.0634L167.695 31.2055L167.97 33.0302L169.794 33.3051L173.937 33.9292L174.124 38.1139L174.207 39.9573L175.993 40.4215L180.047 41.4751L179.796 45.6564L179.686 47.4984L181.414 48.1467L185.335 49.6184L184.649 53.7506L184.347 55.5709L185.997 56.3962L189.743 58.2698L188.629 62.3076L188.138 64.0863L189.693 65.0797L193.223 67.3346L191.693 71.2338L191.018 72.9515L192.461 74.1019L195.736 76.7134L193.806 80.4313L192.956 82.0691L194.271 83.364L197.255 86.3036L194.947 89.7994L193.931 91.3393L195.103 92.7646L197.763 96L195.103 99.2354L193.931 100.661L194.947 102.201L197.255 105.696L194.271 108.636L192.956 109.931L193.806 111.569L195.736 115.287L192.461 117.898L191.018 119.049L191.693 120.766L193.223 124.665L189.693 126.92L188.138 127.914L188.629 129.692L189.743 133.73L185.997 135.604L184.347 136.429L184.649 138.249L185.335 142.382L181.414 143.853L179.686 144.502L179.796 146.344L180.047 150.525L175.993 151.579L174.207 152.043L174.124 153.886L173.937 158.071L169.794 158.695L167.97 158.97L167.695 160.794L167.071 164.937L162.886 165.124L161.043 165.207L160.579 166.993L159.525 171.047L155.344 170.796L153.502 170.686L152.853 172.414L151.382 176.335L147.249 175.649L145.429 175.347L144.604 176.997L142.73 180.743L138.692 179.629L136.914 179.138L135.92 180.693L133.665 184.223L129.766 182.693L128.049 182.018L126.898 183.461L124.287 186.736L120.569 184.806L118.931 183.956L117.636 185.271L114.696 188.255L111.201 185.947L109.661 184.931L108.235 186.103L105 188.763L101.765 186.103L100.339 184.931L98.7994 185.947L95.3036 188.255L92.364 185.271L91.0691 183.956L89.4313 184.806L85.7134 186.736L83.1019 183.461L81.9515 182.018L80.2338 182.693L76.3346 184.223L74.0797 180.693L73.0863 179.138L71.3076 179.629L67.2698 180.743L65.3962 176.997L64.5709 175.347L62.7506 175.649L58.6184 176.335L57.1467 172.414L56.4984 170.686L54.6564 170.796L50.4751 171.047L49.4215 166.993L48.9573 165.207L47.1139 165.124L42.9292 164.937L42.3051 160.794L42.0302 158.97L40.2055 158.695L36.0634 158.071L35.8757 153.886L35.793 152.043L34.0071 151.579L29.9529 150.525L30.2036 146.344L30.3141 144.502L28.5865 143.853L24.6646 142.382L25.351 138.249L25.6534 136.429L24.003 135.604L20.2565 133.73L21.3711 129.692L21.8621 127.914L20.307 126.92L16.7769 124.665L18.3074 120.766L18.9817 119.049L17.5389 117.898L14.2638 115.287L16.1936 111.569L17.0436 109.931L15.7291 108.636L12.7449 105.696L15.0527 102.201L16.0693 100.661L14.8973 99.2354L12.2367 96L14.8973 92.7646L16.0693 91.3393L15.0527 89.7994L12.7449 86.3036L15.7291 83.364L17.0436 82.0691L16.1936 80.4313L14.2638 76.7134L17.5389 74.1019L18.9817 72.9515L18.3074 71.2338L16.7769 67.3346L20.307 65.0797L21.8621 64.0863L21.3711 62.3076L20.2565 58.2698L24.003 56.3962L25.6534 55.5709L25.351 53.7506L24.6646 49.6184L28.5864 48.1467L30.3141 47.4984L30.2036 45.6564L29.9529 41.4751L34.0071 40.4215L35.793 39.9573L35.8757 38.1139L36.0634 33.9292L40.2055 33.3051L42.0302 33.0302L42.3051 31.2055L42.9292 27.0634L47.1139 26.8757L48.9573 26.793L49.4215 25.0071L50.4751 20.9529L54.6564 21.2036L56.4984 21.3141L57.1467 19.5864L58.6184 15.6646L62.7506 16.351L64.5709 16.6534L65.3962 15.003L67.2698 11.2565L71.3076 12.3711L73.0863 12.8621L74.0797 11.307L76.3346 7.77688L80.2338 9.30742L81.9515 9.98165L83.1019 8.53891L85.7134 5.26382L89.4313 7.19356L91.0691 8.04364L92.364 6.72906L95.3036 3.74489L98.7994 6.05267L100.339 7.06929L101.765 5.89727L105 3.23672L108.235 5.89727Z" fill="white" stroke="#F19437" stroke-width="5"/>
<path d="M82.88 49.12C81.88 51.98 80.12 54.82 78.32 56.62C78.72 57.18 79.38 58.48 79.6 59.02C80.02 58.58 80.44 58.08 80.86 57.52V67.7H83.22V53.86C83.92 52.56 84.56 51.18 85.08 49.84L82.88 49.12ZM89.68 65.3C88.4 65.3 88.2 65.12 88.2 63.92V57.52L90.14 56.76V63H92.36V55.88L94.44 55.06C94.42 57.68 94.38 59 94.3 59.36C94.22 59.74 94.08 59.82 93.8 59.82C93.58 59.82 93.02 59.8 92.58 59.78C92.86 60.3 93.06 61.3 93.1 61.96C93.8 61.98 94.74 61.96 95.36 61.68C96.02 61.4 96.38 60.88 96.48 59.88C96.6 59 96.64 56.6 96.66 53.12L96.74 52.76L95.12 52.14L94.68 52.44L94.38 52.68L92.36 53.44V49.14H90.14V54.32L88.2 55.06V51.28H85.84V56L83.42 56.94L84.34 59.04L85.84 58.46V63.92C85.84 66.66 86.66 67.44 89.5 67.44H93.92C96.44 67.44 97.14 66.44 97.46 63.48C96.82 63.32 95.84 62.92 95.3 62.56C95.12 64.82 94.92 65.3 93.74 65.3H89.68ZM107.5 60.36C107.08 59.96 105.54 58.58 104.58 57.8C105.54 56.48 106.34 55.04 106.94 53.52L105.6 52.66L105.18 52.76H104.28V49.08H101.92V52.76H99.08V54.9H103.92C102.6 57.22 100.5 59.32 98.32 60.5C98.68 60.96 99.24 62.12 99.44 62.76C100.28 62.24 101.12 61.58 101.92 60.84V67.74H104.28V60.2C104.96 60.94 105.64 61.74 106.06 62.3L107.5 60.36ZM113.26 64.84V57.52H117.04V55.22H113.26V49.24H110.82V55.22H107.02V57.52H110.82V64.84H106.2V67.16H117.52V64.84H113.26ZM123.46 62.4C122.72 62.4 121.92 61.42 121.92 59.42C121.92 57.24 123.66 54.36 126.94 53.68C126.7 55.32 126.34 57.02 125.88 58.48C125.08 61.16 124.28 62.4 123.46 62.4ZM128.9 66.82C133.9 66.06 136.46 63.1 136.46 58.94C136.46 54.62 133.36 51.2 128.46 51.2C123.32 51.2 119.34 55.12 119.34 59.68C119.34 63.02 121.2 65.44 123.38 65.44C125.54 65.44 127.26 63 128.44 59C129 57.14 129.34 55.3 129.62 53.62C132.28 54.08 133.76 56.12 133.76 58.86C133.76 61.74 131.8 63.56 129.26 64.16C128.74 64.28 128.18 64.38 127.42 64.48L128.9 66.82ZM52.7313 107H71.5313V101.24H66.1713V77.24H60.9313C58.8513 78.52 56.7713 79.32 53.5713 79.92V84.32H59.0513V101.24H52.7313V107ZM86.1463 107.56C92.4263 107.56 96.7063 102.2 96.7063 91.96C96.7063 81.8 92.4263 76.68 86.1463 76.68C79.8663 76.68 75.6263 81.72 75.6263 91.96C75.6263 102.2 79.8663 107.56 86.1463 107.56ZM86.1463 102.04C84.0263 102.04 82.3463 100.12 82.3463 91.96C82.3463 83.84 84.0263 82.16 86.1463 82.16C88.2663 82.16 89.9863 83.84 89.9863 91.96C89.9863 100.12 88.2663 102.04 86.1463 102.04ZM103.873 99.59C106.629 99.59 108.579 97.328 108.579 93.454C108.579 89.606 106.629 87.396 103.873 87.396C101.117 87.396 99.1933 89.606 99.1933 93.454C99.1933 97.328 101.117 99.59 103.873 99.59ZM103.873 97.432C102.755 97.432 101.897 96.288 101.897 93.454C101.897 90.62 102.755 89.554 103.873 89.554C104.991 89.554 105.875 90.62 105.875 93.454C105.875 96.288 104.991 97.432 103.873 97.432ZM104.523 107.364H106.759L117.237 87.396H114.975L104.523 107.364ZM117.861 107.364C120.591 107.364 122.567 105.076 122.567 101.228C122.567 97.354 120.591 95.144 117.861 95.144C115.131 95.144 113.181 97.354 113.181 101.228C113.181 105.076 115.131 107.364 117.861 107.364ZM117.861 105.18C116.743 105.18 115.859 104.062 115.859 101.228C115.859 98.394 116.743 97.302 117.861 97.302C118.979 97.302 119.863 98.394 119.863 101.228C119.863 104.062 118.979 105.18 117.861 105.18ZM139.665 107.364C143.305 107.364 146.659 104.556 146.659 99.746C146.659 94.884 143.305 92.076 139.665 92.076C136.025 92.076 132.671 94.884 132.671 99.746C132.671 104.556 136.025 107.364 139.665 107.364ZM139.665 104.244C137.689 104.244 136.571 102.476 136.571 99.746C136.571 96.99 137.689 95.196 139.665 95.196C141.641 95.196 142.759 96.99 142.759 99.746C142.759 102.476 141.641 104.244 139.665 104.244ZM167.28 86.408C166.63 86.148 165.642 85.888 164.498 85.888C160.858 85.888 159.454 88.228 159.454 91.27V92.44H154.202V91.452C154.202 89.944 154.956 89.19 156.074 89.19C156.828 89.19 157.322 89.32 157.842 89.554L158.544 86.72C157.842 86.434 156.776 86.174 155.606 86.174C151.914 86.174 150.38 88.462 150.38 91.452V92.466L148.43 92.622V95.456H150.38V107H154.202V95.456H159.454V107H163.25V95.456H166.006V92.44H163.25V91.192C163.25 89.58 163.874 88.904 165.018 88.904C165.512 88.904 166.058 89.034 166.578 89.216L167.28 86.408ZM62.64 120.1C61.66 122.86 60.02 125.62 58.3 127.36C58.68 127.94 59.3 129.2 59.52 129.76C59.94 129.32 60.34 128.82 60.74 128.28V138.72H62.98V124.72C63.66 123.44 64.28 122.1 64.78 120.78L62.64 120.1ZM71.32 126.64H70V124.14H71.32V126.64ZM74.66 135.12H73.32V128.7H74.66V135.12ZM66.74 128.7H67.98V135.12H66.74V128.7ZM71.32 128.7V135.12H69.98V128.7H71.32ZM77.04 124.14V122.02H64.34V124.14H67.76V126.64H64.54V138.3H66.74V137.16H74.66V138.18H76.94V126.64H73.56V124.14H77.04ZM89.24 131.28C90.06 130.8 90.82 130.26 91.54 129.64C92.26 130.24 93.06 130.8 93.94 131.28H89.24ZM89.36 136V133.28H93.54V136H89.36ZM86.2 129.66C85.86 129.2 84.36 127.42 83.82 126.84V126.36H85.52C86.04 126.78 86.66 127.34 86.96 127.66C87.46 127.22 87.96 126.7 88.44 126.12C88.88 126.78 89.38 127.44 89.94 128.08C88.64 129.16 87.12 130 85.52 130.6L86.2 129.66ZM93.16 124.18C92.7 125.06 92.12 125.88 91.46 126.62C90.76 125.9 90.2 125.14 89.74 124.38L89.88 124.18H93.16ZM94.68 122.08L94.26 122.16H91.04C91.28 121.66 91.5 121.16 91.7 120.66L89.44 120.04C88.72 121.96 87.48 123.86 86.06 125.24V124.16H83.82V120.06H81.58V124.16H78.96V126.36H81.4C80.84 128.74 79.7 131.5 78.48 133.08C78.84 133.66 79.36 134.58 79.58 135.24C80.34 134.22 81.02 132.74 81.58 131.14V138.72H83.82V129.5C84.26 130.2 84.68 130.94 84.92 131.44L85.1 131.18C85.48 131.66 85.9 132.3 86.12 132.76C86.46 132.64 86.8 132.5 87.14 132.34V138.74H89.36V138.04H93.54V138.68H95.84V132.16L96.2 132.3C96.5 131.72 97.16 130.78 97.64 130.32C95.9 129.84 94.38 129.06 93.12 128.1C94.44 126.62 95.48 124.86 96.16 122.78L94.68 122.08ZM112.8 126.6L111.32 127.22C111.96 128.12 112.38 128.9 112.88 130L114.4 129.32C114.02 128.52 113.28 127.32 112.8 126.6ZM115.04 125.68L113.58 126.36C114.22 127.24 114.68 127.98 115.22 129.06L116.72 128.34C116.3 127.56 115.54 126.38 115.04 125.68ZM99.46 123.32L99.72 126.04C102.02 125.54 106.18 125.1 107.9 124.92C106.56 125.92 104.98 128.16 104.98 131.02C104.98 135.32 108.9 137.56 113.06 137.82L113.98 135.08C110.62 134.92 107.58 133.74 107.58 130.48C107.58 128.14 109.36 125.58 111.76 124.94C112.82 124.7 114.52 124.68 115.58 124.68L115.56 122.12C114.16 122.18 112 122.3 109.96 122.46C106.34 122.78 103.06 123.08 101.4 123.22C101.02 123.26 100.26 123.3 99.46 123.32ZM133.74 123.34H128.36V122.34H133.74V123.34ZM133.74 125.9H128.36V124.88H133.74V125.9ZM136.02 120.68H126.18V127.58H136.02V120.68ZM125.16 130.66L124.84 128.52L123.04 129V126.04H125.04V123.84H123.04V120.06H120.88V123.84H118.72V126.04H120.88V129.58C119.98 129.8 119.18 130.02 118.5 130.16L119.04 132.46C119.62 132.3 120.22 132.12 120.88 131.94V135.94C120.88 136.2 120.78 136.28 120.54 136.28C120.3 136.3 119.62 136.3 118.88 136.28C119.18 136.9 119.44 137.88 119.5 138.46C120.78 138.48 121.66 138.4 122.26 138C122.86 137.64 123.04 137.06 123.04 135.96V131.3L125.16 130.66ZM132.14 134.04H135.96V132.18H132.14V130.42H137.02V128.5H125.2V130.42H129.9V135.64C129.18 135.18 128.6 134.46 128.16 133.3C128.32 132.68 128.44 132 128.54 131.28L126.38 131.02C126.08 133.74 125.26 135.96 123.6 137.28C124.08 137.58 124.98 138.32 125.34 138.7C126.22 137.88 126.92 136.82 127.44 135.56C128.8 137.98 130.82 138.46 133.44 138.46H136.92C137 137.86 137.28 136.86 137.56 136.38C136.7 136.4 134.22 136.4 133.54 136.4C133.04 136.4 132.6 136.38 132.14 136.34V134.04ZM142.9 120.1C141.9 122.96 140.14 125.78 138.34 127.58C138.76 128.16 139.4 129.46 139.62 130.06C140.04 129.6 140.46 129.12 140.88 128.58V138.72H143.22V124.96C143.94 123.6 144.6 122.18 145.12 120.8L142.9 120.1ZM147.56 133.36C146.74 134.78 145.34 136.24 143.94 137.18C144.46 137.5 145.36 138.24 145.8 138.68C147.18 137.54 148.78 135.78 149.78 134.04L147.56 133.36ZM151.92 134.4C153.18 135.68 154.58 137.52 155.22 138.72L157.22 137.46C156.5 136.3 155.12 134.6 153.82 133.34L151.92 134.4ZM149.34 126.24H152.24V130.22H149.34V126.24ZM154.56 130.22V126.24H157.16V123.96H154.56V120.2H152.24V123.96H149.34V120.22H147.02V123.96H144.84V126.24H147.02V130.22H144.34V132.54H157.32V130.22H154.56Z" fill="#F19437"/>
</svg>
