<svg width="182" height="57" viewBox="0 0 182 57" fill="none" xmlns="http://www.w3.org/2000/svg">
<path d="M2.494 48H7.424V40.837C7.424 38.227 6.989 35.269 6.757 32.862H6.902L9.019 37.589L14.355 48H19.633V26.424H14.703V33.558C14.703 36.139 15.109 39.242 15.399 41.533H15.254L13.137 36.748L7.772 26.424H2.494V48ZM29.4255 39.039L29.8895 37.212C30.4405 35.066 31.0205 32.543 31.5425 30.281H31.6585C32.2385 32.485 32.7895 35.066 33.3695 37.212L33.8335 39.039H29.4255ZM36.0665 48H41.5185L34.8195 26.424H28.6135L21.9145 48H27.1925L28.4395 43.041H34.8195L36.0665 48ZM43.785 48H51.934C56.632 48 60.373 46.028 60.373 41.62C60.373 38.749 58.72 37.125 56.545 36.545V36.429C58.285 35.762 59.358 33.674 59.358 31.76C59.358 27.613 55.791 26.424 51.325 26.424H43.785V48ZM48.976 34.979V30.368H51.122C53.297 30.368 54.312 31.006 54.312 32.543C54.312 34.022 53.326 34.979 51.122 34.979H48.976ZM48.976 44.027V38.807H51.557C54.08 38.807 55.327 39.503 55.327 41.272C55.327 43.128 54.051 44.027 51.557 44.027H48.976ZM63.9491 48H77.9561V43.65H69.1401V39.068H76.3611V34.718H69.1401V30.716H77.6371V26.424H63.9491V48ZM82.2157 48H87.4067V40.837H89.9297C94.4827 40.837 98.4557 38.575 98.4557 33.442C98.4557 28.106 94.5407 26.424 89.7847 26.424H82.2157V48ZM87.4067 36.748V30.513H89.5237C92.0177 30.513 93.4097 31.267 93.4097 33.442C93.4097 35.559 92.1917 36.748 89.6687 36.748H87.4067ZM102.125 48H116.132V43.65H107.316V39.068H114.537V34.718H107.316V30.716H115.813V26.424H102.125V48ZM125.582 30.513H127.902C130.367 30.513 131.672 31.18 131.672 33.21C131.672 35.24 130.367 36.313 127.902 36.313H125.582V30.513ZM137.849 48L133.035 39.445C135.268 38.401 136.747 36.371 136.747 33.21C136.747 27.99 132.919 26.424 128.308 26.424H120.391V48H125.582V40.402H128.076L132.049 48H137.849ZM149.827 48.406C155.714 48.406 159.716 44.172 159.716 37.096C159.716 30.049 155.714 26.018 149.827 26.018C143.94 26.018 139.938 30.02 139.938 37.096C139.938 44.172 143.94 48.406 149.827 48.406ZM149.827 43.94C146.985 43.94 145.245 41.301 145.245 37.096C145.245 32.92 146.985 30.455 149.827 30.455C152.669 30.455 154.438 32.92 154.438 37.096C154.438 41.301 152.669 43.94 149.827 43.94Z" fill="#0082E0"/>
<path d="M4.088 6.102C3.612 5.598 2.59 4.94 1.75 4.52L1.344 4.996C2.198 5.43 3.206 6.116 3.696 6.634L4.088 6.102ZM3.444 9.686C2.94 9.224 1.89 8.608 1.036 8.216L0.644 8.706C1.526 9.112 2.548 9.756 3.052 10.232L3.444 9.686ZM1.596 16.826C2.296 15.552 3.192 13.732 3.808 12.248L3.262 11.87C2.604 13.438 1.666 15.314 1.022 16.406L1.596 16.826ZM13.286 6.802V6.172H6.328C6.566 5.626 6.79 5.052 6.972 4.478L6.3 4.324C5.782 6.004 4.928 7.656 3.906 8.734C4.088 8.818 4.382 9.014 4.522 9.126C5.068 8.51 5.586 7.698 6.034 6.802H13.286ZM8.624 14.404C8.722 13.704 8.834 12.808 8.932 11.87H11.536C11.48 12.934 11.41 13.76 11.326 14.404H8.624ZM8.344 11.87C8.232 12.808 8.134 13.704 8.022 14.404H5.572C5.698 13.634 5.838 12.766 5.964 11.87H8.344ZM8.624 8.888C8.568 9.616 8.498 10.428 8.414 11.24H6.048C6.16 10.428 6.272 9.63 6.37 8.888H8.624ZM9.002 11.24C9.086 10.428 9.17 9.616 9.24 8.888H11.69C11.648 9.77 11.62 10.54 11.578 11.24H9.002ZM13.524 11.87V11.24H12.222C12.25 10.484 12.292 9.63 12.334 8.664C12.334 8.552 12.348 8.272 12.348 8.272H5.81C5.712 9.154 5.572 10.19 5.418 11.24H3.962V11.87H5.32C5.11 13.27 4.886 14.614 4.69 15.566L5.348 15.65L5.46 15.02H11.242C11.13 15.692 11.004 16.056 10.85 16.224C10.724 16.392 10.584 16.406 10.318 16.406C10.052 16.406 9.338 16.406 8.568 16.336C8.68 16.504 8.722 16.756 8.736 16.938C9.422 16.994 10.136 17.008 10.528 16.98C10.92 16.966 11.186 16.882 11.41 16.588C11.62 16.35 11.774 15.888 11.9 15.02H13.468V14.404H11.984C12.054 13.746 12.124 12.92 12.18 11.87H13.524ZM20.72 7.18C20.44 8.804 19.992 10.218 19.418 11.436C18.69 10.764 17.5 9.938 16.436 9.322C16.87 8.678 17.248 7.95 17.598 7.18H20.72ZM24.276 4.338H23.59V10.036C22.89 9.266 22.274 8.44 21.812 7.6L21.28 7.824C21.35 7.446 21.434 7.054 21.49 6.648L21.056 6.508L20.916 6.536H17.864C18.13 5.878 18.368 5.178 18.564 4.464L17.906 4.324C17.22 6.858 16.044 9.154 14.476 10.61C14.658 10.708 14.952 10.918 15.064 11.044C15.428 10.68 15.764 10.274 16.1 9.826C17.192 10.47 18.41 11.352 19.124 12.038C18.018 14.096 16.506 15.538 14.756 16.462C14.924 16.574 15.162 16.812 15.288 16.966C18.046 15.44 20.272 12.584 21.28 7.838C21.868 8.902 22.68 9.966 23.59 10.904V16.98H24.276V11.576C25.228 12.458 26.25 13.2 27.244 13.704C27.356 13.522 27.552 13.284 27.72 13.158C26.558 12.626 25.34 11.758 24.276 10.736V4.338ZM32.536 5.92C31.906 5.416 30.716 4.814 29.736 4.45L29.358 4.968C30.352 5.332 31.542 5.976 32.144 6.48L32.536 5.92ZM31.85 9.588C31.206 9.154 29.974 8.622 28.994 8.314L28.644 8.832C29.652 9.168 30.87 9.742 31.486 10.176L31.85 9.588ZM29.764 16.854C30.534 15.58 31.528 13.76 32.228 12.276L31.738 11.842C30.982 13.424 29.918 15.314 29.176 16.406L29.764 16.854ZM41.398 16.7C40.908 15.608 39.746 13.928 38.682 12.682L38.108 12.976C38.682 13.648 39.27 14.446 39.76 15.216C37.842 15.342 35.882 15.454 34.272 15.538C34.944 14.222 35.7 12.43 36.232 11.002H41.216V10.358H37.058V7.432H40.572V6.788H37.058V4.338H36.386V6.788H33.012V7.432H36.386V10.358H32.298V11.002H35.448C34.986 12.416 34.216 14.32 33.572 15.58L32.326 15.636L32.424 16.322C34.384 16.21 37.324 16.028 40.138 15.818C40.404 16.266 40.642 16.7 40.796 17.05L41.398 16.7ZM49.266 4.828H48.552C48.454 6.69 48.342 13.592 42.588 16.378C42.77 16.518 42.994 16.728 43.106 16.896C47.096 14.88 48.468 10.918 48.958 7.964C49.532 10.848 51.03 15.048 54.992 16.896C55.104 16.714 55.328 16.476 55.51 16.336C50.12 13.914 49.35 7.04 49.238 5.332L49.266 4.828ZM68.558 11.114C68.558 8.412 66.542 6.158 63.364 6.158C60.06 6.158 57.428 8.734 57.428 11.674C57.428 13.956 58.646 15.216 59.71 15.216C60.872 15.216 61.936 13.886 62.79 10.988C63.182 9.7 63.448 8.188 63.616 6.802C66.304 6.928 67.858 8.874 67.858 11.086C67.858 13.718 65.87 15.09 64.078 15.482C63.77 15.538 63.322 15.608 62.944 15.622L63.35 16.308C66.556 15.93 68.558 14.054 68.558 11.114ZM58.114 11.618C58.114 9.504 60.004 7.068 62.902 6.816C62.762 8.16 62.482 9.574 62.104 10.82C61.32 13.466 60.438 14.432 59.752 14.432C59.066 14.432 58.114 13.592 58.114 11.618ZM76.048 4.842L75.922 4.884H71.75V5.486H75.586C75.18 6.298 74.606 7.068 73.948 7.754C73.5 7.222 72.66 6.592 71.918 6.158L71.54 6.536C72.268 6.984 73.08 7.642 73.556 8.146C72.59 9.042 71.484 9.756 70.462 10.176C70.588 10.302 70.784 10.54 70.882 10.694C73.024 9.714 75.432 7.712 76.482 5.08L76.048 4.842ZM74.396 8.93H79.576V8.328H74.396V8.93ZM73.906 10.876H80.08V13.074H73.906V10.876ZM73.248 13.662H80.766V10.288H73.248V13.662ZM74.06 13.914C74.452 14.572 74.844 15.482 74.998 16.07L75.628 15.86C75.474 15.272 75.096 14.39 74.662 13.732L74.06 13.914ZM79.38 13.676C79.114 14.334 78.61 15.328 78.204 15.916L78.61 16.07H70.896V16.672H83.118V16.07H78.806C79.198 15.496 79.646 14.642 80.024 13.9L79.38 13.676ZM82.418 6.102C81.886 6.648 80.99 7.39 80.262 7.908C79.856 7.53 79.478 7.11 79.128 6.676C79.856 6.172 80.724 5.458 81.382 4.814L80.85 4.45C80.346 4.982 79.492 5.724 78.806 6.256C78.358 5.654 77.98 5.024 77.672 4.366L77.112 4.562C78.316 7.152 80.57 9.448 82.978 10.54C83.104 10.358 83.286 10.12 83.454 9.994C82.474 9.602 81.536 9.014 80.668 8.272C81.41 7.782 82.292 7.11 82.936 6.48L82.418 6.102ZM89.6 4.87H85.358V5.444H89.6V4.87ZM88.872 12.808V15.594H85.89V12.808H88.872ZM89.502 12.22H85.274V16.882H85.89V16.196H89.502V12.22ZM85.274 10.946H89.544V10.372H85.274V10.946ZM85.274 9.112H89.544V8.524H85.274V9.112ZM84.63 7.264H90.062V6.662H84.63V7.264ZM92.666 16.21C91.84 16.21 91.658 16.084 91.658 15.552V10.4H95.97V11.212H96.642V5.178H90.762V5.822H95.97V9.756H90.986V15.552C90.986 16.616 91.378 16.854 92.652 16.854H95.732C97.02 16.854 97.258 16.252 97.384 14.04C97.188 13.998 96.908 13.886 96.74 13.76C96.656 15.818 96.53 16.21 95.704 16.21H92.666ZM101.542 6.13C101.906 6.648 102.242 7.278 102.396 7.684L102.984 7.46C102.83 7.11 102.536 6.578 102.214 6.13H104.706V5.57H101.024C101.22 5.22 101.402 4.856 101.556 4.492L100.926 4.324C100.45 5.5 99.652 6.634 98.77 7.404C98.938 7.488 99.204 7.684 99.33 7.796C99.792 7.348 100.268 6.774 100.674 6.13H101.542ZM102.2 9.21C101.71 8.818 100.73 8.328 99.946 8.006L99.624 8.496C100.408 8.818 101.36 9.364 101.864 9.742L102.2 9.21ZM101.57 11.688C101.038 11.338 99.988 10.904 99.162 10.652L98.854 11.142C99.694 11.422 100.716 11.898 101.248 12.262L101.57 11.688ZM101.892 12.626C101.094 13.942 100.044 15.496 99.316 16.378L99.848 16.854C100.618 15.776 101.598 14.292 102.326 13.06L101.892 12.626ZM103.572 15.048C104.23 15.482 104.944 16.14 105.252 16.616L105.742 16.238C105.406 15.748 104.692 15.118 104.034 14.712L103.572 15.048ZM103.614 11.576H106.358V12.626H103.614V11.576ZM103.614 10.064H106.358V11.1H103.614V10.064ZM109.942 10.064V11.1H106.988V10.064H109.942ZM109.942 12.626H106.988V11.576H109.942V12.626ZM108.612 13.116H110.558V9.574H106.988V8.762H111.132V8.216H110.418L110.698 7.866C110.306 7.558 109.55 7.18 108.948 6.942L108.598 7.362C109.144 7.586 109.788 7.922 110.18 8.216H106.988V7.418H106.358V8.216H102.452V8.762H106.358V9.574H103.012V13.116H107.968V14.026H102.046V14.586H107.968V16.252C107.968 16.42 107.912 16.462 107.716 16.476C107.506 16.476 106.848 16.49 106.022 16.462C106.12 16.63 106.218 16.854 106.26 17.008C107.282 17.008 107.87 17.008 108.192 16.91C108.528 16.812 108.612 16.644 108.612 16.266V14.586H111.216V14.026H108.612V13.116ZM106.176 5.57C106.4 5.22 106.596 4.87 106.764 4.492L106.12 4.324C105.616 5.5 104.692 6.564 103.67 7.264C103.838 7.334 104.118 7.53 104.23 7.642C104.762 7.236 105.294 6.718 105.77 6.13H106.988C107.394 6.592 107.814 7.18 107.996 7.572L108.542 7.32C108.374 6.984 108.052 6.536 107.716 6.13H111.23V5.57H106.176ZM117.712 8.062H114.534V5.906H117.712V8.062ZM114.534 11.604H117.712V13.62C116.62 13.788 115.514 13.942 114.534 14.096V11.604ZM117.712 10.974H114.534V8.692H117.712V10.974ZM119.406 5.906V5.262H112.728V5.906H113.89V14.18C113.372 14.25 112.882 14.32 112.476 14.376L112.602 15.048C113.96 14.852 115.836 14.558 117.712 14.25V16.966H118.37V5.906H119.406ZM124.502 6.312L124.376 6.34H119.084V6.998H124.18C123.802 9.364 123.074 11.296 122.108 12.822C121.184 11.226 120.54 9.252 120.134 7.068L119.49 7.194C119.952 9.602 120.666 11.73 121.688 13.438C120.778 14.698 119.7 15.622 118.538 16.224C118.678 16.336 118.874 16.588 118.986 16.756C120.134 16.112 121.184 15.23 122.08 14.054C122.906 15.23 123.9 16.168 125.118 16.826C125.23 16.658 125.44 16.392 125.594 16.266C124.348 15.65 123.326 14.684 122.5 13.466C123.662 11.716 124.516 9.42 124.922 6.438L124.502 6.312ZM137.62 6.746H132.426V5.36H137.62V6.746ZM137.62 8.706H132.426V7.292H137.62V8.706ZM138.292 4.8H131.768V9.266H138.292V4.8ZM129.682 4.394C129.052 5.416 127.792 6.592 126.672 7.334C126.798 7.474 126.98 7.712 127.05 7.866C128.268 7.04 129.556 5.78 130.326 4.618L129.682 4.394ZM129.85 7.474C129.024 8.972 127.68 10.428 126.392 11.38C126.532 11.534 126.756 11.842 126.812 11.982C127.442 11.478 128.086 10.862 128.688 10.162V17.022H129.346V9.378C129.752 8.832 130.144 8.272 130.466 7.684L129.85 7.474ZM131.894 13.802C132.566 14.432 133.336 15.314 133.686 15.902L134.204 15.51C133.854 14.95 133.056 14.082 132.384 13.494L131.894 13.802ZM139.314 12.458H137.102V11.016H139.076V10.414H130.802V11.016H136.444V12.458H130.508V13.074H136.444V16.168C136.444 16.364 136.388 16.406 136.15 16.42C135.94 16.448 135.212 16.448 134.302 16.42C134.4 16.616 134.512 16.854 134.54 17.05C135.632 17.05 136.276 17.05 136.64 16.938C137.004 16.812 137.102 16.63 137.102 16.182V13.074H139.314V12.458ZM152.964 7.012C152.418 6.368 151.354 5.43 150.444 4.758L149.982 5.08C150.878 5.766 151.928 6.76 152.446 7.376L152.964 7.012ZM144.634 4.506C143.668 6.788 142.072 8.972 140.406 10.358C140.546 10.484 140.756 10.82 140.826 10.96C141.568 10.316 142.282 9.518 142.954 8.636V17.008H143.64V7.684C144.256 6.746 144.802 5.738 145.264 4.716L144.634 4.506ZM153.258 8.748L153.146 8.132L148.806 8.65C148.666 7.376 148.568 5.99 148.512 4.534H147.84C147.91 6.018 148.022 7.432 148.162 8.734L144.41 9.182L144.508 9.812L148.218 9.364C148.792 13.802 149.912 16.896 152.194 17.036C152.894 17.064 153.328 16.294 153.608 14.04C153.454 13.984 153.188 13.844 153.034 13.718C152.866 15.398 152.614 16.28 152.166 16.266C150.444 16.126 149.408 13.326 148.876 9.28L153.258 8.748ZM166.88 5.22H159.992V5.864H166.88V5.22ZM157.85 4.324C157.122 5.346 155.75 6.606 154.588 7.404C154.714 7.53 154.91 7.796 155.008 7.936C156.212 7.054 157.612 5.752 158.494 4.576L157.85 4.324ZM158.438 7.292C157.444 8.902 155.904 10.512 154.448 11.562C154.588 11.688 154.84 11.982 154.938 12.108C155.554 11.618 156.184 11.044 156.8 10.4V17.078H157.458V9.672C158.046 8.986 158.606 8.244 159.068 7.516L158.438 7.292ZM167.3 9.056H159.376V9.7H164.402V16.042C164.402 16.28 164.304 16.336 164.038 16.35C163.786 16.378 162.82 16.378 161.714 16.35C161.826 16.546 161.938 16.812 161.966 16.98C163.394 16.98 164.15 16.98 164.542 16.882C164.934 16.77 165.074 16.532 165.074 16.042V9.7H167.3V9.056ZM174.02 14.404C174.02 13.634 174.874 13.102 176.064 13.102C176.652 13.102 177.184 13.2 177.688 13.354C177.702 13.606 177.702 13.83 177.702 13.998C177.702 14.992 177.324 15.678 175.966 15.678C174.79 15.678 174.02 15.216 174.02 14.404ZM178.29 5.318H177.478C177.506 5.556 177.506 5.878 177.506 6.144V7.992C177.002 8.02 176.484 8.034 175.98 8.034C175.168 8.034 174.44 7.992 173.656 7.922V8.608C174.468 8.664 175.154 8.692 175.952 8.692C176.47 8.692 176.988 8.678 177.506 8.664C177.52 9.882 177.604 11.506 177.66 12.724C177.184 12.598 176.68 12.528 176.134 12.528C174.328 12.528 173.39 13.438 173.39 14.46C173.39 15.594 174.314 16.322 176.148 16.322C177.968 16.322 178.374 15.174 178.374 14.222C178.374 14.04 178.374 13.844 178.36 13.634C179.214 14.04 179.998 14.642 180.754 15.356L181.16 14.754C180.376 14.054 179.466 13.354 178.346 12.934C178.29 11.604 178.192 10.008 178.178 8.622C179.06 8.566 179.928 8.468 180.74 8.328V7.642C179.97 7.796 179.088 7.894 178.178 7.964C178.178 7.306 178.178 6.564 178.206 6.13C178.22 5.864 178.248 5.612 178.29 5.318ZM171.346 5.374L170.534 5.304C170.534 5.528 170.506 5.794 170.464 6.088C170.282 7.292 169.778 9.98 169.778 11.996C169.778 13.886 170.03 15.384 170.296 16.406L170.94 16.35C170.926 16.238 170.898 16.056 170.884 15.93C170.87 15.748 170.898 15.496 170.94 15.3C171.066 14.67 171.612 13.228 171.934 12.36L171.528 12.052C171.262 12.682 170.856 13.76 170.618 14.474C170.492 13.55 170.436 12.836 170.436 11.912C170.436 10.246 170.828 7.656 171.15 6.144C171.192 5.892 171.276 5.584 171.346 5.374Z" fill="black"/>
</svg>
