<svg width="30" height="30" viewBox="0 0 30 30" fill="none" xmlns="http://www.w3.org/2000/svg">
<path d="M15 30C23.2843 30 30 23.2843 30 15C30 6.71573 23.2843 0 15 0C6.71573 0 0 6.71573 0 15C0 23.2843 6.71573 30 15 30Z" fill="#F0F0F0"/>
<path d="M15 0V15L4.39337 25.6066C7.10784 28.3211 10.8578 30 15 30C23.2842 30 30 23.2842 30 15C30 6.71578 15 0 15 0Z" fill="#D80027"/>
<path d="M15 0C10.8578 0 7.10784 1.67895 4.39337 4.39336C8.07365 8.07363 9.38011 9.38016 15 15H30C30 6.71578 23.2842 0 15 0Z" fill="#0052B4"/>
<path d="M10.271 15.0001L8.43908 14.1384L9.41461 12.3643L7.42535 12.7448L7.17328 10.7352L5.78765 12.2132L4.40209 10.7352L4.14996 12.7448L2.16076 12.3642L3.13629 14.1384L1.30435 15.0001L3.13629 15.8618L2.16076 17.6359L4.15013 17.2554L4.40203 19.265L5.78765 17.787L7.17328 19.265L7.42535 17.2554L9.41449 17.636L8.43902 15.8618L10.271 15.0001Z" fill="#FFDA44"/>
<path d="M4.00038 5.86963L4.60999 6.72176L5.60872 6.40541L4.98658 7.24846L5.59618 8.10058L4.60208 7.76947L3.97999 8.61246L3.98779 7.5648L2.99374 7.23363L3.99265 6.91728L4.00038 5.86963Z" fill="#FFDA44"/>
<path d="M4.00038 21.3877L4.60999 22.2398L5.60872 21.9234L4.98658 22.7665L5.59618 23.6187L4.60208 23.2875L3.97999 24.1305L3.98779 23.0829L2.99374 22.7517L3.99265 22.4354L4.00038 21.3877Z" fill="#FFDA44"/>
<path d="M12.6953 13.6287L12.0857 14.4808L11.0869 14.1643L11.7091 15.0074L11.0995 15.8596L12.0936 15.5284L12.7157 16.3714L12.7079 15.3238L13.7019 14.9927L12.7031 14.6763L12.6953 13.6287Z" fill="#FFDA44"/>
</svg>
