<svg width="30" height="30" viewBox="0 0 30 30" fill="none" xmlns="http://www.w3.org/2000/svg">
<path d="M15 30C23.2843 30 30 23.2843 30 15C30 6.71573 23.2843 0 15 0C6.71573 0 0 6.71573 0 15C0 23.2843 6.71573 30 15 30Z" fill="#F0F0F0"/>
<path d="M0 15.0001C0 6.71578 6.71578 0 15 0C23.2842 0 30 6.71578 30 15.0001" fill="#D80027"/>
<path d="M9.13041 7.82602C9.13041 5.64059 10.6663 3.81493 12.7173 3.36698C12.4021 3.29819 12.0751 3.26086 11.7391 3.26086C9.21771 3.26086 7.17384 5.30473 7.17384 7.82608C7.17384 10.3474 9.21771 12.3913 11.7391 12.3913C12.075 12.3913 12.402 12.354 12.7173 12.2851C10.6663 11.8372 9.13041 10.0115 9.13041 7.82602Z" fill="#F0F0F0"/>
<path d="M15 3.58691L15.3238 4.5833H16.3715L15.5238 5.19918L15.8476 6.19556L15 5.5798L14.1524 6.19556L14.4762 5.19918L13.6285 4.5833H14.6762L15 3.58691Z" fill="#F0F0F0"/>
<path d="M12.4585 5.54346L12.7822 6.5399H13.8299L12.9823 7.15572L13.3061 8.15211L12.4585 7.53635L11.6107 8.15211L11.9346 7.15572L11.0869 6.5399H12.1346L12.4585 5.54346Z" fill="#F0F0F0"/>
<path d="M17.5415 5.54346L17.8654 6.5399H18.913L18.0654 7.15572L18.3892 8.15211L17.5415 7.53635L16.6939 8.15211L17.0177 7.15572L16.1701 6.5399H17.2177L17.5415 5.54346Z" fill="#F0F0F0"/>
<path d="M16.5633 8.47827L16.8871 9.47472H17.9348L17.0871 10.0905L17.4109 11.0869L16.5633 10.4712L15.7157 11.0869L16.0395 10.0905L15.1919 9.47472H16.2395L16.5633 8.47827Z" fill="#F0F0F0"/>
<path d="M13.4367 8.47827L13.7604 9.47472H14.8082L13.9605 10.0905L14.2844 11.0869L13.4367 10.4712L12.589 11.0869L12.9128 10.0905L12.0652 9.47472H13.1129L13.4367 8.47827Z" fill="#F0F0F0"/>
</svg>
